<svg width="56" height="56" viewBox="0 0 56 56" fill="none" xmlns="http://www.w3.org/2000/svg">
<path d="M28 0.875C12.5323 0.875 0 13.0156 0 28C0 42.9844 12.5323 55.125 28 55.125C43.4677 55.125 56 42.9844 56 28C56 13.0156 43.4677 0.875 28 0.875ZM28 49.875C15.5468 49.875 5.41935 40.0641 5.41935 28C5.41935 15.9359 15.5468 6.125 28 6.125C40.4532 6.125 50.5806 15.9359 50.5806 28C50.5806 40.0641 40.4532 49.875 28 49.875ZM18.9677 26.25C20.9661 26.25 22.5806 24.6859 22.5806 22.75C22.5806 20.8141 20.9661 19.25 18.9677 19.25C16.9694 19.25 15.3548 20.8141 15.3548 22.75C15.3548 24.6859 16.9694 26.25 18.9677 26.25ZM37.0323 26.25C39.0306 26.25 40.6452 24.6859 40.6452 22.75C40.6452 20.8141 39.0306 19.25 37.0323 19.25C35.0339 19.25 33.4194 20.8141 33.4194 22.75C33.4194 24.6859 35.0339 26.25 37.0323 26.25ZM37.4839 34.1906C35.1355 36.925 31.6694 38.5 28 38.5C24.3306 38.5 20.8645 36.9359 18.5161 34.1906C17.5565 33.075 15.8403 32.9328 14.7 33.8516C13.5484 34.7812 13.4016 36.4328 14.35 37.5484C17.7371 41.4859 22.7161 43.7391 28 43.7391C33.2839 43.7391 38.2629 41.4859 41.65 37.5484C42.6097 36.4328 42.4516 34.7812 41.3 33.8516C40.1597 32.9328 38.4435 33.075 37.4839 34.1906Z" fill="black"/>
</svg>
