<svg width="32" height="33" viewBox="0 0 32 33" fill="none" xmlns="http://www.w3.org/2000/svg">
<g clip-path="url(#clip0_190_4145)">
<path d="M32 16.2856C32 7.44914 24.8365 0.285645 16 0.285645C7.1635 0.285645 0 7.44914 0 16.2856C0 24.2716 5.851 30.891 13.5 32.0913V20.9106H9.4375V16.2856H13.5V12.7606C13.5 8.75064 15.8888 6.53564 19.5435 6.53564C21.294 6.53564 23.125 6.84814 23.125 6.84814V10.7856H21.1075C19.1199 10.7856 18.5 12.019 18.5 13.2844V16.2856H22.9375L22.2281 20.9106H18.5V32.0913C26.149 30.891 32 24.2718 32 16.2856Z" fill="white"/>
<path d="M22.2281 20.9106L22.9375 16.2856H18.5V13.2844C18.5 12.0189 19.1199 10.7856 21.1075 10.7856H23.125V6.84814C23.125 6.84814 21.294 6.53564 19.5434 6.53564C15.8888 6.53564 13.5 8.75064 13.5 12.7606V16.2856H9.4375V20.9106H13.5V32.0913C14.327 32.2209 15.1629 32.2859 16 32.2856C16.8371 32.2859 17.673 32.2209 18.5 32.0913V20.9106H22.2281Z" fill="black"/>
</g>
<defs>
<clipPath id="clip0_190_4145">
<rect width="32" height="32" fill="white" transform="translate(0 0.285645)"/>
</clipPath>
</defs>
</svg>
