<svg width="32" height="33" viewBox="0 0 32 33" fill="none" xmlns="http://www.w3.org/2000/svg">
<path d="M24.5 0.285645H7.5C3.35786 0.285645 0 3.64351 0 7.78564V24.7856C0 28.9278 3.35786 32.2856 7.5 32.2856H24.5C28.6421 32.2856 32 28.9278 32 24.7856V7.78564C32 3.64351 28.6421 0.285645 24.5 0.285645Z" fill="white"/>
<path d="M24.5 0.285645H7.5C3.35786 0.285645 0 3.64351 0 7.78564V24.7856C0 28.9278 3.35786 32.2856 7.5 32.2856H24.5C28.6421 32.2856 32 28.9278 32 24.7856V7.78564C32 3.64351 28.6421 0.285645 24.5 0.285645Z" fill="white"/>
<path d="M16.0011 3.78564C12.6064 3.78564 12.1803 3.80052 10.847 3.86114C9.51625 3.92214 8.60787 4.13277 7.81313 4.44189C6.99088 4.76114 6.2935 5.18827 5.59875 5.88327C4.90338 6.57814 4.47625 7.27552 4.156 8.09739C3.846 8.89239 3.63512 9.80114 3.57525 11.1313C3.51562 12.4646 3.5 12.8909 3.5 16.2858C3.5 19.6806 3.515 20.1054 3.5755 21.4386C3.63675 22.7694 3.84738 23.6778 4.15625 24.4725C4.47575 25.2948 4.90288 25.9921 5.59788 26.6869C6.2925 27.3823 6.98988 27.8104 7.8115 28.1296C8.60687 28.4388 9.51537 28.6494 10.8459 28.7104C12.1792 28.771 12.605 28.7859 15.9996 28.7859C19.3948 28.7859 19.8195 28.771 21.1528 28.7104C22.4835 28.6494 23.3929 28.4388 24.1882 28.1296C25.0101 27.8104 25.7065 27.3823 26.401 26.6869C27.0964 25.9921 27.5234 25.2948 27.8438 24.4729C28.151 23.6778 28.362 22.7691 28.4245 21.4389C28.4844 20.1056 28.5 19.6806 28.5 16.2858C28.5 12.8909 28.4844 12.4649 28.4245 11.1315C28.362 9.80077 28.151 8.89252 27.8438 8.09777C27.5234 7.27552 27.0964 6.57814 26.401 5.88327C25.7057 5.18802 25.0104 4.76089 24.1875 4.44202C23.3906 4.13277 22.4817 3.92202 21.151 3.86114C19.8176 3.80052 19.3931 3.78564 15.9972 3.78564H16.0011ZM14.8798 6.03827C15.2126 6.03777 15.584 6.03827 16.0011 6.03827C19.3388 6.03827 19.7342 6.05027 21.0522 6.11014C22.271 6.16589 22.9325 6.36952 23.3731 6.54064C23.9565 6.76714 24.3724 7.03802 24.8096 7.47564C25.2471 7.91314 25.5179 8.32977 25.745 8.91314C25.9161 9.35314 26.12 10.0146 26.1755 11.2334C26.2354 12.5511 26.2484 12.9469 26.2484 16.2829C26.2484 19.6189 26.2354 20.0148 26.1755 21.3324C26.1198 22.5511 25.9161 23.2126 25.745 23.6528C25.5185 24.2361 25.2471 24.6515 24.8096 25.0888C24.3721 25.5263 23.9568 25.797 23.3731 26.0236C22.933 26.1955 22.271 26.3986 21.0522 26.4544C19.7345 26.5143 19.3388 26.5273 16.0011 26.5273C12.6634 26.5273 12.2677 26.5143 10.9501 26.4544C9.73137 26.3981 9.06987 26.1945 8.62887 26.0234C8.04562 25.7968 7.62887 25.526 7.19137 25.0885C6.75387 24.651 6.48312 24.2354 6.256 23.6518C6.08488 23.2116 5.881 22.5501 5.8255 21.3314C5.76562 20.0136 5.75362 19.6179 5.75362 16.2798C5.75362 12.9418 5.76562 12.548 5.8255 11.2303C5.88125 10.0115 6.08488 9.35002 6.256 8.90939C6.48263 8.32602 6.75388 7.90939 7.1915 7.47189C7.629 7.03439 8.04562 6.76352 8.629 6.53652C9.06962 6.36464 9.73137 6.16152 10.9501 6.10552C12.1032 6.05339 12.5501 6.03777 14.8798 6.03514V6.03827ZM22.6736 8.11377C21.8455 8.11377 21.1736 8.78502 21.1736 9.61327C21.1736 10.4414 21.8455 11.1133 22.6736 11.1133C23.5018 11.1133 24.1736 10.4414 24.1736 9.61327C24.1736 8.78514 23.5018 8.11327 22.6736 8.11327V8.11377ZM16.0011 9.86639C12.4561 9.86639 9.58187 12.7406 9.58187 16.2858C9.58187 19.8309 12.4561 22.7038 16.0011 22.7038C19.5462 22.7038 22.4195 19.8309 22.4195 16.2858C22.4195 12.7408 19.546 9.86639 16.0009 9.86639H16.0011ZM16.0011 12.119C18.3022 12.119 20.1679 13.9844 20.1679 16.2858C20.1679 18.5869 18.3022 20.4525 16.0011 20.4525C13.6999 20.4525 11.8345 18.5869 11.8345 16.2858C11.8345 13.9844 13.6999 12.119 16.0011 12.119Z" fill="black"/>
</svg>
