<svg width="42" height="58" viewBox="0 0 42 58" fill="none" xmlns="http://www.w3.org/2000/svg">
<path d="M35.0942 0.0078125L31.5869 10.9337L35.1204 11.6763L34.7331 13.5953L28.2019 19.5757L21.7644 14.1851L18.8389 13.6734C19.866 11.8822 20.6742 9.57719 20.8894 7.47419C22.1419 7.18919 25.2544 6.76481 26.6511 6.21681C26.0265 4.93119 22.8765 4.10356 20.5636 4.17731C20.347 1.58819 19.4536 0.545563 16.2942 0.689563C13.1347 0.833438 12.1727 1.51469 12.5242 5.24244C10.166 5.75831 7.76212 6.81944 7.55675 8.62794C8.5405 8.58956 11.6767 8.26594 12.6472 8.25156C12.7297 10.0141 13.1972 11.7324 13.8935 12.7984L9.49875 12.0328L0.916748 21.4898L10.5847 28.4742L10.7879 30.5797L6.51412 57.5484H11.311L16.1004 36.3922L22.0845 57.5484H26.7682L26.3227 55.4976L28.4595 57.5484L36.3422 17.2319C36.9685 16.6644 37.5004 16.1718 37.854 15.8179C37.8761 14.5008 37.5369 13.4502 37.2172 12.7554L37.3386 12.1427L40.7434 12.8582L41.7989 1.21856L38.9431 9.81619L37.5871 9.53419L38.4165 0.451937L35.7205 9.14569L34.3184 8.85406L35.0942 0.0078125ZM38.4165 0.451937L38.4167 0.450687H38.4165V0.451937ZM10.5222 16.1733L10.5652 24.1852L6.62775 21.2164L10.5222 16.1733ZM21.5261 18.8298L27.8855 24.5719C27.8855 24.5719 30.7596 22.1399 33.4949 19.7556L26.3151 55.4508L20.9636 30.7597L21.5261 18.8298Z" fill="black"/>
</svg>
