<svg width="49" height="48" viewBox="0 0 49 48" fill="none" xmlns="http://www.w3.org/2000/svg">
<path d="M13.3333 15C15.3224 15 17.23 14.2098 18.6366 12.8033C20.0431 11.3968 20.8333 9.48912 20.8333 7.5C20.8333 5.51088 20.0431 3.60322 18.6366 2.1967C17.23 0.790176 15.3224 0 13.3333 0C11.3441 0 9.43647 0.790176 8.02995 2.1967C6.62343 3.60322 5.83325 5.51088 5.83325 7.5C5.83325 9.48912 6.62343 11.3968 8.02995 12.8033C9.43647 14.2098 11.3441 15 13.3333 15ZM0.333252 21.964C0.333252 19.774 2.10725 18 4.29725 18H15.4973C14.6207 20.2114 14.6058 22.6712 15.4553 24.8931C16.3048 27.115 17.957 28.9374 20.0853 30H15.2993C14.1171 29.9993 12.9615 30.3501 11.9793 31.0079C10.9971 31.6657 10.2327 32.6007 9.78325 33.694C5.77325 32.952 3.36925 30.95 1.99525 28.714C0.333252 26.02 0.333252 23.236 0.333252 22.756V21.964ZM28.5793 30H33.3693C35.8593 30 37.9933 31.526 38.8853 33.694C42.8952 32.952 45.2993 30.95 46.6733 28.714C48.3333 26.018 48.3333 23.234 48.3333 22.754V21.964C48.3338 21.4433 48.2316 20.9276 48.0326 20.4464C47.8336 19.9652 47.5416 19.5281 47.1734 19.1599C46.8052 18.7917 46.368 18.4997 45.8868 18.3007C45.4057 18.1016 44.89 17.9995 44.3693 18H33.1693C34.0458 20.2114 34.0607 22.6712 33.2112 24.8931C32.3617 27.115 30.7095 28.9374 28.5813 30M42.8333 7.5C42.8333 9.48912 42.0431 11.3968 40.6366 12.8033C39.23 14.2098 37.3224 15 35.3333 15C33.3441 15 31.4365 14.2098 30.0299 12.8033C28.6234 11.3968 27.8333 9.48912 27.8333 7.5C27.8333 5.51088 28.6234 3.60322 30.0299 2.1967C31.4365 0.790176 33.3441 0 35.3333 0C37.3224 0 39.23 0.790176 40.6366 2.1967C42.0431 3.60322 42.8333 5.51088 42.8333 7.5ZM11.3333 35.964C11.3333 33.774 13.1073 32 15.2973 32H33.3693C35.5592 32 37.3333 33.774 37.3333 35.964V36.754C37.3333 37.234 37.3333 40.018 35.6733 42.714C33.9333 45.546 30.5453 48 24.3333 48C18.1213 48 14.7333 45.544 12.9933 42.716C11.3333 40.018 11.3333 37.236 11.3333 36.754V35.964ZM24.3333 29C26.3224 29 28.23 28.2098 29.6366 26.8033C31.0431 25.3968 31.8333 23.4891 31.8333 21.5C31.8333 19.5109 31.0431 17.6032 29.6366 16.1967C28.23 14.7902 26.3224 14 24.3333 14C22.3441 14 20.4365 14.7902 19.03 16.1967C17.6234 17.6032 16.8333 19.5109 16.8333 21.5C16.8333 23.4891 17.6234 25.3968 19.03 26.8033C20.4365 28.2098 22.3441 29 24.3333 29Z" fill="black"/>
</svg>
