<svg width="30" height="30" viewBox="0 0 30 30" fill="none" xmlns="http://www.w3.org/2000/svg">
<path d="M25.574 10.1014L17.5323 3.66804C15.9608 2.41574 13.5053 2.40347 11.9461 3.65576L3.90438 10.1014C2.7503 11.0222 2.05049 12.8638 2.29604 14.3126L3.84299 23.5697C4.19904 25.6446 6.12659 27.2775 8.22603 27.2775H21.2401C23.315 27.2775 25.2794 25.6078 25.6354 23.5575L27.1824 14.3003C27.4034 12.8638 26.7036 11.0222 25.574 10.1014ZM15.6539 22.3666C15.6539 22.8699 15.2364 23.2874 14.7331 23.2874C14.2297 23.2874 13.8123 22.8699 13.8123 22.3666V18.6833C13.8123 18.18 14.2297 17.7625 14.7331 17.7625C15.2364 17.7625 15.6539 18.18 15.6539 18.6833V22.3666Z" fill="#111111"/>
</svg>
