<svg width="103" height="114" viewBox="0 0 103 114" fill="none" xmlns="http://www.w3.org/2000/svg">
<path d="M85.883 0.875L77.1145 22.2146L85.9483 23.665L84.9801 27.4131L68.652 39.0935L52.5583 28.5649L45.2445 27.5657C47.8123 24.0671 49.833 19.5652 50.3708 15.4578C53.502 14.9011 61.2833 14.0723 64.7751 13.002C63.2136 10.491 55.3386 8.87451 49.5564 9.01856C49.0148 3.96167 46.7814 1.92529 38.883 2.20654C30.9842 2.48755 28.5792 3.81812 29.458 11.0989C23.5623 12.1064 17.5526 14.179 17.0392 17.7112C19.4986 17.6362 27.3392 17.0042 29.7655 16.9761C29.9717 20.4185 31.1405 23.7747 32.8811 25.8567L21.8942 24.3613L0.439209 42.832L24.6092 56.4734L25.117 60.5857L14.4326 113.259H26.4248L38.3983 71.9382L53.3586 113.259H65.068L63.9542 109.253L69.2961 113.259L89.003 34.5159C90.5686 33.4075 91.8983 32.4453 92.7823 31.7541C92.8376 29.1816 91.9895 27.1296 91.1905 25.7727L91.4939 24.5759L100.006 25.9734L102.645 3.23975L95.5051 20.032L92.1151 19.4812L94.1886 1.74243L87.4486 18.7224L83.9433 18.1528L85.883 0.875ZM24.453 32.4482L24.5605 48.0964L14.7167 42.2981L24.453 32.4482ZM51.9626 37.6367L67.8611 48.8518C67.8611 48.8518 75.0464 44.1018 81.8845 39.4448L63.9351 109.162L50.5564 60.9373L51.9626 37.6367Z" fill="white"/>
</svg>
