<svg width="30" height="30" viewBox="0 0 30 30" fill="none" xmlns="http://www.w3.org/2000/svg">
<g id="vuesax/outline/notification">
<g id="notification">
<path id="Vector" d="M14.7569 25.474C11.8962 25.474 9.03557 25.0197 6.32226 24.1112C5.29096 23.7551 4.5052 23.0308 4.16144 22.0854C3.80539 21.14 3.92816 20.0965 4.49293 19.1634L5.90483 16.8184C6.19949 16.3273 6.46959 15.3451 6.46959 14.7681V11.2199C6.46959 6.65268 10.1897 2.93262 14.7569 2.93262C19.3241 2.93262 23.0441 6.65268 23.0441 11.2199V14.7681C23.0441 15.3328 23.3142 16.3273 23.6089 16.8307L25.0085 19.1634C25.5364 20.0473 25.6346 21.1155 25.2786 22.0854C24.9226 23.0553 24.1491 23.792 23.1792 24.1112C20.4781 25.0197 17.6175 25.474 14.7569 25.474ZM14.7569 4.77423C11.2087 4.77423 8.3112 7.65942 8.3112 11.2199V14.7681C8.3112 15.6643 7.94288 16.9903 7.48862 17.7637L6.07671 20.1087C5.80661 20.563 5.73295 21.0418 5.89255 21.447C6.03988 21.8644 6.4082 22.1836 6.91158 22.3555C12.0435 24.0743 17.4824 24.0743 22.6144 22.3555C23.0564 22.2082 23.4002 21.8767 23.5598 21.4347C23.7194 20.9927 23.6825 20.5139 23.437 20.1087L22.0251 17.7637C21.5585 16.9657 21.2025 15.652 21.2025 14.7558V11.2199C21.2025 7.65942 18.3173 4.77423 14.7569 4.77423Z" fill="#111111"/>
<path id="Vector_2" d="M17.0416 5.10439C16.9557 5.10439 16.8698 5.09211 16.7838 5.06756C16.4278 4.96934 16.084 4.89567 15.7525 4.84656C14.7089 4.71151 13.7022 4.78518 12.7568 5.06756C12.413 5.17805 12.0447 5.06756 11.8115 4.80973C11.5782 4.5519 11.5045 4.18358 11.6396 3.85209C12.1429 2.56296 13.3707 1.71582 14.7703 1.71582C16.1699 1.71582 17.3977 2.55069 17.9011 3.85209C18.0238 4.18358 17.9624 4.5519 17.7292 4.80973C17.545 5.00617 17.2872 5.10439 17.0416 5.10439Z" fill="#111111"/>
<path id="Vector_3" d="M14.7583 28.273C13.5429 28.273 12.3642 27.7819 11.5048 26.9225C10.6454 26.063 10.1543 24.8844 10.1543 23.6689H11.9959C11.9959 24.3933 12.2906 25.1054 12.8062 25.6211C13.3219 26.1367 14.034 26.4314 14.7583 26.4314C16.2807 26.4314 17.5207 25.1913 17.5207 23.6689H19.3624C19.3624 26.2104 17.2998 28.273 14.7583 28.273Z" fill="#111111"/>
</g>
</g>
</svg>
