<svg width="157" height="125" viewBox="0 0 157 125" fill="none" xmlns="http://www.w3.org/2000/svg">
<path d="M129.269 82.0313C117.371 82.0313 107.724 91.6504 107.724 103.516C107.724 115.381 117.371 125 129.269 125C141.168 125 150.814 115.381 150.814 103.516C150.814 91.6504 141.168 82.0313 129.269 82.0313ZM129.269 109.375C126.03 109.375 123.393 106.746 123.393 103.516C123.393 100.286 126.03 97.6563 129.269 97.6563C132.508 97.6563 135.145 100.286 135.145 103.516C135.145 106.746 132.508 109.375 129.269 109.375ZM148.856 39.0625H133.187V29.2481C133.187 25.8008 134.337 22.4707 136.406 19.7656C137.488 18.3496 137.275 16.333 136.083 15.0073L130.787 9.10645C129.157 7.2876 126.302 7.417 124.74 9.29688C120.108 14.8682 117.518 21.9263 117.518 29.2481V39.0625H92.4643L78.7319 7.11426C77.8298 5.00203 76.3244 3.2012 74.4031 1.93614C72.4819 0.671087 70.2299 -0.00225811 67.9276 5.68948e-06H35.2553C28.7747 5.68948e-06 23.5035 5.25635 23.5035 11.7188V47.4902C21.3907 45.8472 18.3719 45.9131 16.4304 47.8491L8.81382 55.4443C6.71074 57.5415 6.71074 60.9424 8.81382 63.0396L10.0527 64.2749C8.83096 66.5356 7.85899 68.8696 7.13675 71.2866H5.38622C2.41156 71.2866 0 73.6914 0 76.6577V87.3999C0 90.3662 2.41156 92.771 5.38622 92.771H7.1343C7.85899 95.1904 8.82851 97.522 10.0502 99.7852L8.81137 101.021C6.7083 103.118 6.7083 106.519 8.81137 108.616L16.428 116.211C18.5311 118.308 21.9415 118.308 24.0446 116.211L25.2834 114.976C27.5505 116.194 29.8911 117.163 32.3149 117.883V119.629C32.3149 122.595 34.7265 125 37.7011 125H48.4736C51.4482 125 53.8598 122.595 53.8598 119.629V117.886C56.2836 117.166 58.6241 116.196 60.8913 114.978L62.1301 116.213C64.2332 118.311 67.6436 118.311 69.7467 116.213L77.3633 108.618C79.4664 106.521 79.4664 103.12 77.3633 101.023L76.1245 99.7876C77.3462 97.5269 78.3181 95.1929 79.0404 92.7759H80.7933C83.768 92.7759 86.1796 90.3711 86.1796 87.4048V85.94H105.898C111.262 78.8623 119.687 74.2212 129.269 74.2212C133.833 74.2212 138.1 75.3467 141.951 77.1997L154.394 64.7925C155.863 63.3276 156.688 61.3403 156.688 59.2676V46.875C156.69 42.561 153.182 39.0625 148.856 39.0625ZM43.0898 101.563C32.2733 101.563 23.5035 92.8174 23.5035 82.0313C23.5035 71.2451 32.2733 62.5 43.0898 62.5C53.9063 62.5 62.6761 71.2451 62.6761 82.0313C62.6761 92.8174 53.9063 101.563 43.0898 101.563ZM48.476 39.0625H39.1725V15.625H65.3422L75.4169 39.0625H48.476Z" fill="white"/>
</svg>
