<svg width="56" height="46" viewBox="0 0 56 46" fill="none" xmlns="http://www.w3.org/2000/svg">
<path d="M8.4 6.19961C8.4 3.11086 10.9113 0.599609 14 0.599609H23.3012C25.5937 0.599609 27.65 1.99086 28.4988 4.11711L32.6987 14.5996H42V11.6421C42 9.47211 42.5075 7.32836 43.4787 5.37711L43.6975 4.93961C44.3887 3.55711 46.0687 2.99711 47.4512 3.68836C48.8337 4.37961 49.3937 6.05961 48.7025 7.44211L48.4837 7.87961C47.8975 9.04336 47.6 10.3296 47.6 11.6334V14.5996H52.5C54.4338 14.5996 56 16.1659 56 18.0996V22.0721C56 23.5159 55.2563 24.8634 54.0225 25.6334L50.2337 28.0046C48.9912 27.4884 47.6262 27.1996 46.2 27.1996C42.7612 27.1996 39.7162 28.8534 37.8 31.3996H30.8C30.8 32.9484 29.5487 34.1996 28 34.1996H27.2825C27.1337 34.6196 26.9587 35.0309 26.775 35.4334L27.2825 35.9409C28.3762 37.0346 28.3762 38.8109 27.2825 39.9046L25.305 41.8821C24.2113 42.9759 22.435 42.9759 21.3412 41.8821L20.8337 41.3746C20.4312 41.5671 20.02 41.7334 19.6 41.8821V42.5996C19.6 44.1484 18.3487 45.3996 16.8 45.3996H14C12.4513 45.3996 11.2 44.1484 11.2 42.5996V41.8821C10.78 41.7334 10.3687 41.5584 9.96625 41.3746L9.45875 41.8821C8.365 42.9759 6.58875 42.9759 5.495 41.8821L3.5175 39.8959C2.42375 38.8021 2.42375 37.0259 3.5175 35.9321L4.025 35.4246C3.8325 35.0221 3.66625 34.6109 3.5175 34.1909H2.8C1.25125 34.1909 0 32.9396 0 31.3909V28.5996C0 27.0509 1.25125 25.7996 2.8 25.7996H3.5175C3.66625 25.3796 3.84125 24.9684 4.025 24.5659L3.5175 24.0584C2.42375 22.9646 2.42375 21.1884 3.5175 20.0946L5.495 18.1171C6.2825 17.3296 7.41125 17.1109 8.39125 17.4521V6.19961H8.4ZM23.3012 6.19961H14V14.5996H26.6613L23.3012 6.19961ZM15.4 22.9996C13.5435 22.9996 11.763 23.7371 10.4503 25.0499C9.1375 26.3626 8.4 28.1431 8.4 29.9996C8.4 31.8561 9.1375 33.6366 10.4503 34.9494C11.763 36.2621 13.5435 36.9996 15.4 36.9996C17.2565 36.9996 19.037 36.2621 20.3497 34.9494C21.6625 33.6366 22.4 31.8561 22.4 29.9996C22.4 28.1431 21.6625 26.3626 20.3497 25.0499C19.037 23.7371 17.2565 22.9996 15.4 22.9996ZM46.2 39.7996C46.757 39.7996 47.2911 39.5784 47.6849 39.1845C48.0788 38.7907 48.3 38.2566 48.3 37.6996C48.3 37.1427 48.0788 36.6085 47.6849 36.2147C47.2911 35.8209 46.757 35.5996 46.2 35.5996C45.643 35.5996 45.1089 35.8209 44.7151 36.2147C44.3213 36.6085 44.1 37.1427 44.1 37.6996C44.1 38.2566 44.3213 38.7907 44.7151 39.1845C45.1089 39.5784 45.643 39.7996 46.2 39.7996ZM46.2 45.3996C41.9475 45.3996 38.5 41.9521 38.5 37.6996C38.5 35.0921 39.795 32.7909 41.7725 31.3996C43.0238 30.5159 44.555 29.9996 46.2 29.9996C46.4362 29.9996 46.6637 30.0084 46.8913 30.0259C50.82 30.3759 53.9 33.6746 53.9 37.6996C53.9 41.9521 50.4525 45.3996 46.2 45.3996Z" fill="black"/>
</svg>
